<svg width="2225" height="744" viewBox="0 0 2225 744" fill="none" xmlns="http://www.w3.org/2000/svg">
<path d="M512.356 414.92L510.403 412.316C511.271 413.184 511.705 414.486 511.705 416.222C512.139 417.958 512.139 419.694 511.705 421.43C510.403 424.468 507.582 426.421 503.242 427.289C501.94 427.289 499.119 427.94 494.779 429.242C490.439 430.11 485.664 431.412 480.456 433.148C475.248 434.45 470.691 435.752 466.785 437.055C463.313 437.923 461.359 438.357 460.925 438.357C460.057 439.225 457.67 444.65 453.764 454.632C449.858 464.181 445.301 475.899 440.093 489.788C435.318 503.676 430.761 517.348 426.421 530.802C419.477 552.069 413.618 570.515 408.843 586.139C404.069 601.764 398.644 621.077 392.568 644.08C386.492 665.781 381.283 682.057 376.943 692.907C373.037 703.758 369.348 710.919 365.876 714.391C363.272 717.429 360.017 719.165 356.11 719.599C352.204 720.033 348.732 719.165 345.694 716.995C333.542 707.447 335.495 676.197 351.553 623.247C366.31 575.072 385.407 522.99 408.843 467.002C411.014 461.359 412.75 456.585 414.052 452.679C415.788 448.773 416.656 446.82 416.656 446.82C416.656 446.82 416.439 446.82 416.005 446.82C415.571 446.82 414.92 447.037 414.052 447.471C413.184 447.471 412.316 447.471 411.448 447.471C394.955 450.075 374.339 452.896 349.6 455.934C324.861 458.972 302.726 461.142 283.196 462.444L271.477 463.747L253.9 483.928C237.841 502.591 197.26 549.899 132.158 625.852C75.7359 692.256 41.6656 730.233 29.9471 739.781C23.0029 744.989 15.8416 745.206 8.46332 740.432C2.82111 735.658 0 730.233 0 724.156C0 718.08 2.82111 712.655 8.46332 707.881C9.33135 707.013 10.6334 706.145 12.3695 705.277C14.1055 704.843 15.4076 704.626 16.2756 704.626C20.1818 703.758 25.607 700.502 32.5512 694.86C39.4955 689.652 45.1377 684.01 49.4779 677.934C72.4807 645.382 86.8033 608.057 92.4455 565.957C92.8795 563.787 93.0965 561.834 93.0965 560.098C93.9646 553.154 94.6156 547.946 95.0496 544.474C95.4836 540.567 95.4836 536.444 95.0496 532.104C94.1816 508.233 87.6713 490.005 75.5189 477.418C71.6127 473.078 67.4895 469.389 63.1494 466.351C58.8092 463.313 53.384 460.057 46.8738 456.585C39.4955 452.679 34.5043 449.858 31.9002 448.122C29.7301 445.952 29.0791 443.565 29.9471 440.961C30.3812 440.093 30.8152 439.442 31.2492 439.008C32.1172 438.14 32.9852 437.272 33.8533 436.404C35.1553 435.535 36.8914 435.318 39.0615 435.752C41.2316 435.752 44.7037 436.62 49.4779 438.357C54.2521 440.527 60.7623 442.48 69.0086 444.216C77.6889 445.518 90.7094 447.037 108.07 448.773C124.563 450.943 137.149 452.462 145.829 453.33C154.944 453.764 169.483 453.981 189.448 453.981C194.222 453.981 200.299 453.981 207.677 453.981C215.489 453.547 223.084 453.113 230.463 452.679C238.275 452.245 244.785 451.811 249.993 451.377C255.202 450.943 258.023 450.726 258.457 450.726C258.891 450.292 260.627 448.339 263.665 444.867C268.873 438.791 276.034 430.544 285.149 420.128C320.304 380.198 356.978 339.184 395.172 297.084C433.365 254.985 464.181 221.348 487.617 196.175C535.793 145.395 578.978 101.126 617.171 63.3664C655.799 25.607 679.236 4.77417 687.482 0.868022C689.652 0 691.388 -0.217005 692.69 0.217005C693.992 0.651016 695.294 1.73606 696.596 3.47213C697.898 4.77418 698.549 5.85922 698.549 6.72724C698.983 7.59529 698.766 8.89735 697.898 10.6334C697.898 13.2375 685.746 31.9002 661.441 66.6215C651.025 81.3781 641.476 95.2666 632.796 108.287C624.116 120.874 618.039 129.771 614.567 134.979C572.902 200.95 537.746 264.75 509.101 326.38C503.893 336.797 498.034 349.383 491.524 364.14C485.447 378.462 480.022 391.483 475.248 403.201C470.908 414.486 468.738 420.562 468.738 421.43C469.172 421.43 470.691 421.213 473.295 420.779C476.333 420.345 479.588 419.911 483.06 419.477C486.966 418.609 490.439 417.741 493.477 416.873C496.949 416.005 499.336 415.354 500.638 414.92C502.808 414.052 504.978 413.618 507.148 413.618C509.318 413.618 511.054 414.052 512.356 414.92ZM244.134 463.096H244.785C244.785 462.661 244.785 462.444 244.785 462.444C244.785 462.01 244.351 461.793 243.483 461.793C240.879 462.227 235.237 462.661 226.557 463.096C217.876 463.096 208.545 463.313 198.562 463.747C188.58 463.747 180.334 463.747 173.824 463.747C164.275 463.747 155.595 463.53 147.783 463.096C140.404 462.661 129.337 461.576 114.58 459.84L77.4719 456.585L83.3311 462.444C97.6537 478.503 105.9 499.336 108.07 524.943C110.674 555.758 105.9 589.611 93.7475 626.503C92.8795 629.541 92.0115 632.145 91.1434 634.315C90.7094 636.051 90.4924 636.919 90.4924 636.919C90.4924 636.919 93.9646 633.013 100.909 625.201C107.853 616.954 116.75 606.972 127.601 595.253C137.583 583.969 151.255 568.561 168.615 549.031C185.976 529.5 202.035 511.271 216.791 494.345C231.982 477.418 241.096 467.002 244.134 463.096ZM435.535 403.852L436.186 402.55C460.057 351.336 484.796 302.509 510.403 256.07C539.482 204.856 568.996 157.765 598.943 114.797C605.453 105.683 610.444 98.3047 613.916 92.6625C617.822 87.0203 619.775 84.1992 619.775 84.1992C617.605 85.9352 609.576 93.7475 595.688 107.636C582.233 121.525 567.259 136.932 550.767 153.859C534.274 170.785 520.603 184.891 509.752 196.175C444.216 265.184 373.688 343.09 298.169 429.893C295.999 432.497 294.046 434.667 292.31 436.404C290.574 438.14 289.272 439.659 288.404 440.961C287.536 442.263 286.885 443.348 286.451 444.216C286.017 444.65 285.583 445.084 285.149 445.518C285.149 445.518 285.366 445.518 285.8 445.518C285.8 445.518 286.451 445.518 287.753 445.518C292.093 444.65 298.82 443.999 307.935 443.565C320.087 442.263 335.061 440.527 352.855 438.357C370.65 435.752 386.492 433.365 400.38 431.195C414.703 429.025 422.732 427.723 424.468 427.289C424.468 426.855 426.204 423.166 429.676 416.222C431.412 412.75 433.365 408.626 435.535 403.852Z" fill="black"/>
<path d="M659.59 403.852L661.543 405.154C663.279 408.192 667.185 409.928 673.261 410.362C679.337 410.362 686.282 408.843 694.094 405.805C694.094 407.541 694.094 408.843 694.094 409.711C694.094 410.58 694.094 411.665 694.094 412.967H693.443C670.44 421.647 656.335 418.826 651.126 404.503C650.692 403.201 650.258 401.248 649.824 398.644C649.39 395.606 648.956 392.568 648.522 389.53C648.088 383.888 647.437 379.764 646.569 377.16C646.135 374.122 645.701 372.169 645.267 371.301C644.833 370.433 644.182 369.999 643.314 369.999C637.672 369.999 625.519 378.679 606.857 396.04C588.628 412.967 569.531 433.582 549.566 457.887C546.528 461.793 543.707 465.266 541.103 468.304C538.499 470.908 536.763 472.427 535.895 472.861C534.593 473.729 533.291 474.163 531.989 474.163C530.253 473.729 528.951 473.078 528.083 472.21C527.215 471.342 526.781 470.474 526.781 469.606C526.347 468.304 526.347 466.785 526.781 465.049C526.781 462.879 527.432 459.84 528.734 455.934C530.036 451.594 531.555 446.169 533.291 439.659C535.461 432.28 537.414 425.987 539.15 420.779C540.452 415.571 541.103 412.75 541.103 412.316C541.103 412.316 541.32 411.014 541.754 408.409C542.622 405.805 543.49 402.767 544.358 399.295C545.226 395.389 546.094 391.917 546.962 388.879C547.83 385.841 548.481 383.67 548.915 382.368C551.52 371.518 556.077 366.093 562.587 366.093C566.059 366.093 568.663 367.612 570.399 370.65C572.569 373.254 573.437 376.509 573.003 380.415C573.003 380.849 572.569 382.151 571.701 384.322C571.267 386.058 570.616 388.228 569.748 390.832C569.314 392.568 568.663 394.521 567.795 396.691C566.927 399.729 565.842 402.55 564.54 405.154C562.804 409.929 561.502 413.618 560.634 416.222L558.03 422.732L574.956 406.456C605.772 375.641 628.557 358.498 643.314 355.025C650.692 354.591 655.9 358.064 658.939 365.442C659.373 367.178 659.59 369.131 659.59 371.301C660.024 373.471 660.024 377.16 659.59 382.368C659.156 389.313 658.939 394.521 658.939 397.993C658.939 401.031 659.156 402.984 659.59 403.852Z" fill="black"/>
<path d="M898.958 243.049L901.562 245.002C903.298 246.738 904.383 248.474 904.817 250.21C905.251 251.513 905.034 253.249 904.166 255.419C901.562 261.495 896.137 263.448 887.891 261.278C881.38 258.674 858.161 257.806 818.231 258.674L788.284 259.976L779.17 274.949C765.715 297.518 750.091 325.295 732.296 358.281C714.501 390.832 699.094 420.128 686.073 446.169C679.563 459.189 671.968 474.163 663.287 491.09C653.739 510.186 644.408 529.283 635.293 548.38C625.745 567.476 618.15 583.969 612.507 597.858C608.167 609.142 605.129 617.822 603.393 623.899C602.091 628.239 601.006 631.711 600.138 634.315C599.27 636.485 598.185 638.221 596.883 639.523C595.147 641.693 593.845 642.995 592.977 643.429C591.675 643.863 590.155 643.863 588.419 643.429C581.475 640.825 579.088 634.315 581.258 623.899C581.692 620.86 582.777 617.171 584.513 612.831C585.815 608.491 588.636 602.198 592.977 593.951C596.883 585.271 602.959 573.119 611.205 557.494C622.924 534.925 637.897 506.497 656.126 472.21C673.921 437.923 689.762 408.409 703.651 383.671C709.727 372.386 715.586 361.536 721.228 351.119C726.871 340.703 730.994 333.325 733.598 328.984C736.636 323.342 740.542 316.181 745.316 307.501C750.525 298.82 755.299 290.791 759.639 283.413C764.413 275.6 767.885 269.958 770.055 266.486C770.923 265.618 771.574 264.75 772.008 263.882C772.442 263.014 772.876 262.363 773.31 261.929C773.744 261.495 773.961 261.278 773.961 261.278C773.527 261.278 772.008 261.278 769.404 261.278C766.8 261.278 763.328 261.495 758.988 261.929C755.082 262.363 750.959 262.58 746.618 262.58C742.278 263.014 738.372 263.448 734.9 263.882C731.428 263.882 729.258 263.882 728.39 263.882C727.522 263.882 726.871 264.099 726.437 264.533C726.003 264.533 725.569 264.75 725.135 265.184C725.135 265.618 725.352 266.052 725.786 266.486C726.22 267.788 726.003 269.09 725.135 270.392C724.267 271.694 723.182 272.996 721.879 274.298L719.926 276.251L699.094 276.902C693.017 276.902 686.724 277.119 680.214 277.554C673.704 277.554 668.278 277.771 663.938 278.205C638.331 280.375 623.358 280.809 619.018 279.507C618.15 278.639 617.716 277.553 617.716 276.251C617.716 274.949 618.15 273.864 619.018 272.996C621.622 271.694 631.821 269.958 649.616 267.788C666.976 265.184 686.29 262.797 707.557 260.627C710.161 260.193 714.935 259.759 721.879 259.325C728.824 258.457 736.202 257.806 744.014 257.372C752.261 256.504 759.422 255.853 765.498 255.419C772.008 254.985 775.481 254.768 775.915 254.768C776.783 254.768 777.434 254.768 777.868 254.768C778.302 254.334 778.736 253.683 779.17 252.815C780.038 251.512 780.906 249.993 781.774 248.257C791.322 231.765 797.615 218.093 800.653 207.243C801.087 206.375 801.304 205.507 801.304 204.639C802.172 202.903 802.824 201.601 803.258 200.733C803.692 199.865 804.343 199.214 805.211 198.779C808.249 196.175 811.287 195.741 814.325 197.477C817.363 198.779 819.099 201.601 819.533 205.941C819.533 208.979 818.231 212.017 815.627 215.055C814.759 216.357 812.589 219.395 809.117 224.169C806.079 228.51 802.824 233.284 799.351 238.492C796.313 243.7 793.926 247.606 792.19 250.21L790.888 252.815L794.794 252.164C796.096 251.73 798.483 251.513 801.956 251.513C805.428 251.079 809.334 250.644 813.674 250.21C855.774 246.304 879.427 243.917 884.636 243.049C885.504 242.615 886.806 242.181 888.542 241.747C890.278 241.747 891.58 241.53 892.448 241.096C893.75 240.662 894.618 240.445 895.052 240.445C895.92 240.445 896.571 240.662 897.005 241.096C897.439 241.53 898.09 242.181 898.958 243.049Z" fill="black"/>
<path d="M937.48 429.242L938.131 430.544C939.434 429.676 940.736 428.808 942.038 427.94C950.284 421.43 956.143 416.656 959.615 413.618C959.615 415.354 959.615 416.656 959.615 417.524C959.615 418.392 959.615 419.477 959.615 420.779C956.143 423.817 950.935 427.723 943.991 432.497C912.742 457.236 889.305 474.814 873.68 485.23C858.055 495.647 845.686 502.157 836.572 504.761C823.551 509.101 814.437 506.497 809.229 496.949C807.927 493.911 807.276 490.222 807.276 485.881C807.276 481.107 807.927 476.333 809.229 471.559C810.965 466.785 813.569 460.925 817.041 453.981C820.947 447.037 824.853 440.31 828.759 433.799C830.929 430.761 832.665 428.374 833.968 426.638C835.704 424.468 836.355 423.383 835.921 423.383C834.619 423.383 824.636 428.591 805.974 439.008C783.405 452.028 766.478 460.274 755.194 463.747C743.909 466.785 735.88 466.134 731.106 461.793C725.463 456.585 723.727 448.339 725.898 437.055C726.332 435.752 727.199 433.148 728.502 429.242C729.804 425.336 731.323 421.43 733.059 417.524C735.229 413.184 736.965 409.06 738.267 405.154C739.569 400.814 740.654 397.559 741.522 395.389C745.428 383.67 750.853 377.811 757.798 377.811C765.176 377.811 768.865 382.585 768.865 392.134C768.865 393.436 768.648 394.955 768.214 396.691C767.78 397.993 766.478 399.729 764.308 401.899C762.572 404.069 759.968 407.324 756.496 411.665C753.892 414.703 751.07 418.826 748.032 424.034C745.428 429.242 743.041 434.45 740.871 439.659C738.701 444.433 737.616 447.905 737.616 450.075C737.616 455.717 743.692 457.019 755.845 453.981C760.619 452.245 767.563 448.99 776.677 444.216C786.226 439.008 795.991 433.582 805.974 427.94C816.39 421.864 825.287 416.873 832.665 412.967C840.478 409.06 845.469 406.673 847.639 405.805C848.941 405.371 850.026 405.371 850.894 405.805C851.762 405.805 852.413 406.239 852.847 407.107C855.017 409.277 855.451 412.099 854.149 415.571C853.281 419.043 850.026 424.902 844.384 433.148C839.176 442.263 834.185 452.245 829.41 463.096C825.07 473.946 822.249 482.409 820.947 488.485C820.947 490.222 820.947 491.524 820.947 492.392C821.381 493.26 821.815 494.128 822.249 494.996C823.551 496.732 825.287 497.6 827.457 497.6C830.061 497.6 833.534 496.732 837.874 494.996C853.064 489.788 886.267 467.87 937.48 429.242Z" fill="black"/>
<path d="M1063.3 403.852L1065.25 405.154C1066.99 408.192 1070.9 409.928 1076.97 410.362C1083.05 410.362 1089.99 408.843 1097.81 405.805C1097.81 407.541 1097.81 408.843 1097.81 409.711C1097.81 410.58 1097.81 411.665 1097.81 412.967H1097.15C1074.15 421.647 1060.05 418.826 1054.84 404.503C1054.4 403.201 1053.97 401.248 1053.54 398.644C1053.1 395.606 1052.67 392.568 1052.23 389.53C1051.8 383.888 1051.15 379.764 1050.28 377.16C1049.85 374.122 1049.41 372.169 1048.98 371.301C1048.54 370.433 1047.89 369.999 1047.03 369.999C1041.38 369.999 1029.23 378.679 1010.57 396.04C992.339 412.967 973.243 433.582 953.278 457.887C950.24 461.793 947.419 465.266 944.815 468.304C942.211 470.908 940.474 472.427 939.606 472.861C938.304 473.729 937.002 474.163 935.7 474.163C933.964 473.729 932.662 473.078 931.794 472.21C930.926 471.342 930.492 470.474 930.492 469.606C930.058 468.304 930.058 466.785 930.492 465.049C930.492 462.879 931.143 459.84 932.445 455.934C933.747 451.594 935.266 446.169 937.002 439.659C939.172 432.28 941.126 425.987 942.862 420.779C944.164 415.571 944.815 412.75 944.815 412.316C944.815 412.316 945.032 411.014 945.466 408.409C946.334 405.805 947.202 402.767 948.07 399.295C948.938 395.389 949.806 391.917 950.674 388.879C951.542 385.841 952.193 383.67 952.627 382.368C955.231 371.518 959.788 366.093 966.298 366.093C969.771 366.093 972.375 367.612 974.111 370.65C976.281 373.254 977.149 376.509 976.715 380.415C976.715 380.849 976.281 382.151 975.413 384.322C974.979 386.058 974.328 388.228 973.46 390.832C973.026 392.568 972.375 394.521 971.507 396.691C970.639 399.729 969.554 402.55 968.251 405.154C966.515 409.929 965.213 413.618 964.345 416.222L961.741 422.732L978.668 406.456C1009.48 375.641 1032.27 358.498 1047.03 355.025C1054.4 354.591 1059.61 358.064 1062.65 365.442C1063.08 367.178 1063.3 369.131 1063.3 371.301C1063.74 373.471 1063.74 377.16 1063.3 382.368C1062.87 389.313 1062.65 394.521 1062.65 397.993C1062.65 401.031 1062.87 402.984 1063.3 403.852Z" fill="black"/>
<path d="M1571.54 414.92L1569.59 412.316C1570.46 413.184 1570.89 414.486 1570.89 416.222C1571.33 417.958 1571.33 419.694 1570.89 421.43C1569.59 424.468 1566.77 426.421 1562.43 427.289C1561.13 427.289 1558.31 427.94 1553.97 429.242C1549.63 430.11 1544.85 431.412 1539.64 433.148C1534.43 434.45 1529.88 435.752 1525.97 437.055C1522.5 437.923 1520.55 438.357 1520.11 438.357C1519.24 439.225 1516.86 444.65 1512.95 454.632C1509.04 464.181 1504.49 475.899 1499.28 489.788C1494.5 503.676 1489.95 517.348 1485.61 530.802C1478.66 552.069 1472.8 570.515 1468.03 586.139C1463.26 601.764 1457.83 621.077 1451.75 644.08C1445.68 665.781 1440.47 682.057 1436.13 692.907C1432.22 703.758 1428.53 710.919 1425.06 714.391C1422.46 717.429 1419.2 719.165 1415.3 719.599C1411.39 720.033 1407.92 719.165 1404.88 716.995C1392.73 707.447 1394.68 676.197 1410.74 623.247C1425.5 575.072 1444.59 522.99 1468.03 467.002C1470.2 461.359 1471.94 456.585 1473.24 452.679C1474.97 448.773 1475.84 446.82 1475.84 446.82C1475.84 446.82 1475.63 446.82 1475.19 446.82C1474.76 446.82 1474.11 447.037 1473.24 447.471C1472.37 447.471 1471.5 447.471 1470.63 447.471C1454.14 450.075 1433.53 452.896 1408.79 455.934C1384.05 458.972 1361.91 461.142 1342.38 462.444L1330.66 463.747L1313.09 483.928C1297.03 502.591 1256.45 549.899 1191.34 625.852C1134.92 692.256 1100.85 730.233 1089.13 739.781C1082.19 744.989 1075.03 745.206 1067.65 740.432C1062.01 735.658 1059.19 730.233 1059.19 724.156C1059.19 718.08 1062.01 712.655 1067.65 707.881C1068.52 707.013 1069.82 706.145 1071.56 705.277C1073.29 704.843 1074.59 704.626 1075.46 704.626C1079.37 703.758 1084.79 700.502 1091.74 694.86C1098.68 689.652 1104.32 684.01 1108.66 677.934C1131.67 645.382 1145.99 608.057 1151.63 565.957C1152.07 563.787 1152.28 561.834 1152.28 560.098C1153.15 553.154 1153.8 547.946 1154.24 544.474C1154.67 540.567 1154.67 536.444 1154.24 532.104C1153.37 508.233 1146.86 490.005 1134.71 477.418C1130.8 473.078 1126.68 469.389 1122.34 466.351C1118 463.313 1112.57 460.057 1106.06 456.585C1098.68 452.679 1093.69 449.858 1091.09 448.122C1088.92 445.952 1088.27 443.565 1089.13 440.961C1089.57 440.093 1090 439.442 1090.44 439.008C1091.3 438.14 1092.17 437.272 1093.04 436.404C1094.34 435.535 1096.08 435.318 1098.25 435.752C1100.42 435.752 1103.89 436.62 1108.66 438.357C1113.44 440.527 1119.95 442.48 1128.2 444.216C1136.88 445.518 1149.9 447.037 1167.26 448.773C1183.75 450.943 1196.34 452.462 1205.02 453.33C1214.13 453.764 1228.67 453.981 1248.63 453.981C1253.41 453.981 1259.49 453.981 1266.86 453.981C1274.68 453.547 1282.27 453.113 1289.65 452.679C1297.46 452.245 1303.97 451.811 1309.18 451.377C1314.39 450.943 1317.21 450.726 1317.64 450.726C1318.08 450.292 1319.81 448.339 1322.85 444.867C1328.06 438.791 1335.22 430.544 1344.34 420.128C1379.49 380.198 1416.16 339.184 1454.36 297.084C1492.55 254.985 1523.37 221.348 1546.8 196.175C1594.98 145.395 1638.16 101.126 1676.36 63.3664C1714.99 25.607 1738.42 4.77417 1746.67 0.868022C1748.84 0 1750.57 -0.217005 1751.88 0.217005C1753.18 0.651016 1754.48 1.73606 1755.78 3.47213C1757.08 4.77418 1757.74 5.85922 1757.74 6.72724C1758.17 7.59529 1757.95 8.89735 1757.08 10.6334C1757.08 13.2375 1744.93 31.9002 1720.63 66.6215C1710.21 81.3781 1700.66 95.2666 1691.98 108.287C1683.3 120.874 1677.23 129.771 1673.75 134.979C1632.09 200.95 1596.93 264.75 1568.29 326.38C1563.08 336.797 1557.22 349.383 1550.71 364.14C1544.63 378.462 1539.21 391.483 1534.43 403.201C1530.09 414.486 1527.92 420.562 1527.92 421.43C1528.36 421.43 1529.88 421.213 1532.48 420.779C1535.52 420.345 1538.77 419.911 1542.25 419.477C1546.15 418.609 1549.62 417.741 1552.66 416.873C1556.14 416.005 1558.52 415.354 1559.82 414.92C1561.99 414.052 1564.16 413.618 1566.33 413.618C1568.5 413.618 1570.24 414.052 1571.54 414.92ZM1303.32 463.096H1303.97C1303.97 462.661 1303.97 462.444 1303.97 462.444C1303.97 462.01 1303.54 461.793 1302.67 461.793C1300.07 462.227 1294.42 462.661 1285.74 463.096C1277.06 463.096 1267.73 463.313 1257.75 463.747C1247.77 463.747 1239.52 463.747 1233.01 463.747C1223.46 463.747 1214.78 463.53 1206.97 463.096C1199.59 462.661 1188.52 461.576 1173.77 459.84L1136.66 456.585L1142.52 462.444C1156.84 478.503 1165.09 499.336 1167.26 524.943C1169.86 555.758 1165.09 589.611 1152.93 626.503C1152.07 629.541 1151.2 632.145 1150.33 634.315C1149.9 636.051 1149.68 636.919 1149.68 636.919C1149.68 636.919 1153.15 633.013 1160.1 625.201C1167.04 616.954 1175.94 606.972 1186.79 595.253C1196.77 583.969 1210.44 568.561 1227.8 549.031C1245.16 529.5 1261.22 511.271 1275.98 494.345C1291.17 477.418 1300.28 467.002 1303.32 463.096ZM1494.72 403.852L1495.37 402.55C1519.24 351.336 1543.98 302.509 1569.59 256.07C1598.67 204.856 1628.18 157.765 1658.13 114.797C1664.64 105.683 1669.63 98.3047 1673.1 92.6625C1677.01 87.0203 1678.96 84.1992 1678.96 84.1992C1676.79 85.9352 1668.76 93.7475 1654.87 107.636C1641.42 121.525 1626.45 136.932 1609.95 153.859C1593.46 170.785 1579.79 184.891 1568.94 196.175C1503.4 265.184 1432.87 343.09 1357.36 429.893C1355.19 432.497 1353.23 434.667 1351.5 436.404C1349.76 438.14 1348.46 439.659 1347.59 440.961C1346.72 442.263 1346.07 443.348 1345.64 444.216C1345.2 444.65 1344.77 445.084 1344.34 445.518C1344.34 445.518 1344.55 445.518 1344.99 445.518C1344.99 445.518 1345.64 445.518 1346.94 445.518C1351.28 444.65 1358.01 443.999 1367.12 443.565C1379.27 442.263 1394.25 440.527 1412.04 438.357C1429.84 435.752 1445.68 433.365 1459.57 431.195C1473.89 429.025 1481.92 427.723 1483.65 427.289C1483.65 426.855 1485.39 423.166 1488.86 416.222C1490.6 412.75 1492.55 408.626 1494.72 403.852Z" fill="black"/>
<path d="M1802.76 414.92L1803.41 414.269C1806.01 413.835 1807.53 414.703 1807.97 416.873C1808.83 418.609 1808.83 420.779 1807.97 423.383C1807.53 425.987 1806.23 427.723 1804.06 428.591C1798.85 431.629 1791.26 435.752 1781.27 440.961C1771.29 445.735 1761.53 450.509 1751.98 455.283C1742.43 459.623 1735.27 462.879 1730.49 465.049C1708.36 475.031 1685.36 482.192 1661.49 486.532C1653.24 488.268 1644.99 489.353 1636.75 489.788C1628.93 490.222 1622.86 490.005 1618.52 489.137C1606.37 486.098 1597.9 479.371 1593.13 468.955C1591.83 465.049 1591.18 460.274 1591.18 454.632C1591.18 448.556 1591.83 442.263 1593.13 435.752C1593.56 433.148 1594 430.978 1594.43 429.242C1594.43 427.506 1594.43 426.638 1594.43 426.638C1594.43 426.638 1594.65 425.987 1595.08 424.685C1595.52 423.383 1595.95 421.864 1596.38 420.128C1596.38 418.392 1596.6 416.873 1597.03 415.571C1597.47 414.269 1597.69 413.401 1597.69 412.967C1598.12 408.626 1598.77 405.588 1599.64 403.852C1600.51 401.682 1601.37 399.946 1602.24 398.644C1603.54 396.908 1605.5 395.389 1608.1 394.087C1610.71 392.351 1612.88 391.483 1614.61 391.483C1616.35 391.483 1618.3 392.351 1620.47 394.087C1623.08 395.389 1625.03 396.908 1626.33 398.644C1631.54 405.588 1630.67 414.703 1623.73 425.987C1614.18 440.744 1609.4 452.462 1609.4 461.142C1609.4 469.389 1615.48 474.814 1627.63 477.418C1636.31 478.72 1648.47 477.852 1664.09 474.814C1680.15 471.342 1695.77 467.002 1710.96 461.793C1717.04 459.189 1725.29 455.5 1735.7 450.726C1746.55 445.518 1757.4 439.876 1768.25 433.799C1774.33 430.327 1780.62 426.855 1787.13 423.383C1790.61 421.647 1793.43 420.128 1795.6 418.826L1802.76 414.92ZM1636.1 377.811L1635.44 377.16C1634.14 378.028 1632.41 378.679 1630.24 379.113C1628.07 379.113 1626.33 378.896 1625.03 378.462C1623.29 377.16 1621.99 375.641 1621.12 373.905C1620.69 372.169 1620.47 369.348 1620.47 365.442C1620.47 355.025 1623.51 345.911 1629.59 338.099C1633.93 332.023 1638.7 328.767 1643.91 328.333C1649.55 327.899 1653.89 330.504 1656.93 336.146C1660.83 342.656 1658.88 350.034 1651.07 358.281C1650.2 359.149 1649.33 360.017 1648.47 360.885C1647.6 362.621 1646.51 364.357 1645.21 366.093C1643.91 367.395 1642.82 368.697 1641.96 369.999C1641.09 371.735 1640 373.254 1638.7 374.556C1637.83 375.858 1636.96 376.943 1636.1 377.811Z" fill="black"/>
<path d="M1912.05 403.852L1914 405.154C1915.74 408.192 1919.64 409.928 1925.72 410.362C1931.8 410.362 1938.74 408.843 1946.55 405.805C1946.55 407.541 1946.55 408.843 1946.55 409.711C1946.55 410.58 1946.55 411.665 1946.55 412.967H1945.9C1922.9 421.647 1908.79 418.826 1903.59 404.503C1903.15 403.201 1902.72 401.248 1902.28 398.644C1901.85 395.606 1901.42 392.568 1900.98 389.53C1900.55 383.888 1899.9 379.764 1899.03 377.16C1898.59 374.122 1898.16 372.169 1897.73 371.301C1897.29 370.433 1896.64 369.999 1895.77 369.999C1890.13 369.999 1877.98 378.679 1859.32 396.04C1841.09 412.967 1821.99 433.582 1802.03 457.887C1798.99 461.793 1796.17 465.266 1793.56 468.304C1790.96 470.908 1789.22 472.427 1788.35 472.861C1787.05 473.729 1785.75 474.163 1784.45 474.163C1782.71 473.729 1781.41 473.078 1780.54 472.21C1779.67 471.342 1779.24 470.474 1779.24 469.606C1778.81 468.304 1778.81 466.785 1779.24 465.049C1779.24 462.879 1779.89 459.84 1781.19 455.934C1782.5 451.594 1784.01 446.169 1785.75 439.659C1787.92 432.28 1789.87 425.987 1791.61 420.779C1792.91 415.571 1793.56 412.75 1793.56 412.316C1793.56 412.316 1793.78 411.014 1794.21 408.409C1795.08 405.805 1795.95 402.767 1796.82 399.295C1797.69 395.389 1798.55 391.917 1799.42 388.879C1800.29 385.841 1800.94 383.67 1801.37 382.368C1803.98 371.518 1808.54 366.093 1815.05 366.093C1818.52 366.093 1821.12 367.612 1822.86 370.65C1825.03 373.254 1825.9 376.509 1825.46 380.415C1825.46 380.849 1825.03 382.151 1824.16 384.322C1823.73 386.058 1823.08 388.228 1822.21 390.832C1821.77 392.568 1821.12 394.521 1820.25 396.691C1819.39 399.729 1818.3 402.55 1817 405.154C1815.26 409.929 1813.96 413.618 1813.09 416.222L1810.49 422.732L1827.42 406.456C1858.23 375.641 1881.02 358.498 1895.77 355.025C1903.15 354.591 1908.36 358.064 1911.4 365.442C1911.83 367.178 1912.05 369.131 1912.05 371.301C1912.48 373.471 1912.48 377.16 1912.05 382.368C1911.61 389.313 1911.4 394.521 1911.4 397.993C1911.4 401.031 1911.61 402.984 1912.05 403.852Z" fill="black"/>
<path d="M2212.61 412.316H2213.26C2216.3 411.014 2218.91 411.231 2221.08 412.967C2223.68 414.269 2224.98 416.656 2224.98 420.128C2224.98 423.166 2223.03 425.77 2219.12 427.94C2216.95 429.242 2214.57 430.327 2211.96 431.195C2188.09 441.178 2169.43 448.773 2155.97 453.981C2142.95 459.189 2132.97 462.879 2126.03 465.049C2119.52 467.219 2113.88 468.738 2109.1 469.606C2094.34 472.21 2083.49 469.606 2076.55 461.793C2070.04 454.415 2068.09 443.999 2070.69 430.544C2071.56 426.204 2072.64 421.213 2073.95 415.571C2075.68 409.928 2077.63 404.937 2079.8 400.597C2080.24 399.295 2080.46 398.21 2080.46 397.342C2080.89 396.474 2081.11 396.04 2081.11 396.04C2081.11 396.04 2080.24 396.691 2078.5 397.993C2077.2 399.295 2075.46 400.814 2073.29 402.55L2065.48 409.711V414.92C2062.88 432.28 2057.24 440.961 2048.56 440.961C2046.82 440.961 2045.08 440.31 2043.35 439.008C2041.61 437.706 2040.31 435.969 2039.44 433.799C2039.44 433.365 2039.22 433.148 2038.79 433.148C2038.79 432.714 2038.57 432.714 2038.14 433.148C2037.71 433.582 2036.84 434.233 2035.54 435.101C2034.23 435.969 2032.5 437.272 2030.33 439.008C2028.16 440.744 2025.34 442.914 2021.86 445.518C2007.98 456.368 1996.69 465.049 1988.01 471.559C1979.33 478.069 1971.3 483.277 1963.92 487.183C1938.32 501.506 1921.82 500.421 1914.44 483.928C1911.84 477.418 1911.41 469.606 1913.14 460.491C1920.52 431.412 1942.66 402.55 1979.55 373.905C2008.19 352.638 2030.98 348.515 2047.9 361.536C2053.11 365.442 2056.8 370.867 2058.97 377.811C2059.84 379.981 2060.49 381.934 2060.93 383.671C2061.79 384.973 2062.44 385.624 2062.88 385.624C2063.75 385.624 2066.13 384.105 2070.04 381.066C2073.95 377.594 2078.29 373.688 2083.06 369.348C2087.83 364.574 2092.39 360.234 2096.73 356.327C2101.07 352.421 2103.89 349.6 2105.19 347.864C2109.53 342.222 2113.88 339.401 2118.22 339.401C2124.73 339.401 2127.98 343.741 2127.98 352.421C2127.55 354.157 2126.68 356.11 2125.38 358.281C2124.51 360.017 2123.21 362.404 2121.47 365.442C2118 371.518 2114.09 378.896 2109.75 387.577C2105.41 396.257 2101.94 403.852 2099.34 410.362C2097.17 415.571 2095.21 421.43 2093.48 427.94C2091.74 434.016 2090.44 438.791 2089.57 442.263C2089.14 450.509 2096.08 453.113 2110.4 450.075C2117.78 448.773 2127.76 445.952 2140.35 441.612C2152.94 436.837 2171.38 429.242 2195.69 418.826C2201.76 417.09 2207.41 414.92 2212.61 412.316ZM2025.77 416.873L2026.42 417.524C2030.33 414.486 2033.37 412.099 2035.54 410.362C2037.71 408.626 2039.22 407.324 2040.09 406.456C2040.96 405.154 2041.39 404.286 2041.39 403.852C2041.83 402.984 2042.05 402.333 2042.05 401.899C2042.05 400.597 2041.83 399.512 2041.39 398.644C2041.39 397.776 2040.53 396.691 2038.79 395.389C2029.68 388.445 2015.57 391.483 1996.47 404.503C1990.4 408.843 1983.02 415.354 1974.34 424.034C1966.09 432.714 1959.37 440.31 1954.16 446.82C1950.69 452.028 1947.21 457.236 1943.74 462.444C1940.7 467.653 1939.18 470.908 1939.18 472.21C1939.18 473.512 1943.74 471.993 1952.85 467.653C1966.31 461.142 1990.61 444.216 2025.77 416.873Z" fill="black"/>
</svg>
